<?xml version="1.0" encoding="UTF-8" standalone="no"?>
<!-- Created with Inkscape (http://www.inkscape.org/) -->

<svg
   xmlns:dc="http://purl.org/dc/elements/1.1/"
   xmlns:cc="http://creativecommons.org/ns#"
   xmlns:rdf="http://www.w3.org/1999/02/22-rdf-syntax-ns#"
   xmlns:svg="http://www.w3.org/2000/svg"
   xmlns="http://www.w3.org/2000/svg"
   xmlns:sodipodi="http://sodipodi.sourceforge.net/DTD/sodipodi-0.dtd"
   xmlns:inkscape="http://www.inkscape.org/namespaces/inkscape"
   id="svg2"
   version="1.1"
   inkscape:version="0.48.4 r9939"
   width="20"
   height="20"
   sodipodi:docname="settings.svg"
   inkscape:export-filename="/home/albertoi/Proyectos/WikiPartido/inwik/web/inwik/skins/common/images/options.png"
   inkscape:export-xdpi="90"
   inkscape:export-ydpi="90">
  <metadata
     id="metadata8">
    <rdf:RDF>
      <cc:Work
         rdf:about="">
        <dc:format>image/svg+xml</dc:format>
        <dc:type
           rdf:resource="http://purl.org/dc/dcmitype/StillImage" />
        <dc:title></dc:title>
      </cc:Work>
    </rdf:RDF>
  </metadata>
  <defs
     id="defs6" />
  <sodipodi:namedview
     pagecolor="#ffffff"
     bordercolor="#666666"
     borderopacity="1"
     objecttolerance="10"
     gridtolerance="10"
     guidetolerance="10"
     inkscape:pageopacity="0"
     inkscape:pageshadow="2"
     inkscape:window-width="1920"
     inkscape:window-height="1023"
     id="namedview4"
     showgrid="false"
     inkscape:zoom="16.68772"
     inkscape:cx="12.950514"
     inkscape:cy="16.269305"
     inkscape:window-x="0"
     inkscape:window-y="28"
     inkscape:window-maximized="1"
     inkscape:current-layer="svg2" />
  <g
     transform="matrix(0.85106383,0,0,0.85106383,-124.46809,-245.95745)"
     id="power"
     style="fill:#999999;fill-opacity:1">
    <g
       id="g1660"
       style="fill:#999999;fill-opacity:1">
      <path
         inkscape:connector-curvature="0"
         d="m 160,297.999 c 0,0.551 -0.45,1.001 -1,1.001 h -2 c -0.55,0 -1,-0.45 -1,-1.001 v -7.998 c 0,-0.551 0.45,-1.001 1,-1.001 h 2 c 0.55,0 1,0.45 1,1.001 v 7.998 z m 3.291,-5.061 c -0.588,-0.344 -1.291,-0.484 -1.291,0.328 0,0.453 0,1.309 0,1.834 0,0.715 0.475,0.888 0.697,1.066 1.706,1.375 2.803,3.477 2.803,5.834 0,4.136 -3.364,7.5 -7.5,7.5 -4.136,0 -7.5,-3.364 -7.5,-7.5 0,-2.37 1.107,-4.48 2.831,-5.856 0.214,-0.171 0.669,-0.237 0.669,-1.053 0,-0.512 0,-1.255 0,-1.763 0,-0.844 -0.609,-0.828 -1.373,-0.342 -3.067,1.835 -5.127,5.187 -5.127,9.014 0,5.79 4.711,10.5 10.5,10.5 5.789,0 10.5,-4.71 10.5,-10.5 0,-3.861 -2.096,-7.239 -5.209,-9.062 z"
         id="path1662"
         style="fill:#999999;fill-opacity:1" />
    </g>
  </g>
</svg>
