<?xml version="1.0" encoding="UTF-8" standalone="no"?>
<!-- Created with Inkscape (http://www.inkscape.org/) -->

<svg
   xmlns:dc="http://purl.org/dc/elements/1.1/"
   xmlns:cc="http://creativecommons.org/ns#"
   xmlns:rdf="http://www.w3.org/1999/02/22-rdf-syntax-ns#"
   xmlns:svg="http://www.w3.org/2000/svg"
   xmlns="http://www.w3.org/2000/svg"
   xmlns:sodipodi="http://sodipodi.sourceforge.net/DTD/sodipodi-0.dtd"
   xmlns:inkscape="http://www.inkscape.org/namespaces/inkscape"
   id="svg2"
   version="1.1"
   inkscape:version="0.48.4 r9939"
   width="15"
   height="15"
   sodipodi:docname="close.svg"
   inkscape:export-filename="/home/albertoi/Proyectos/WikiPartido/inwik/web/inwik/skins/common/images/options.png"
   inkscape:export-xdpi="90"
   inkscape:export-ydpi="90">
  <metadata
     id="metadata8">
    <rdf:RDF>
      <cc:Work
         rdf:about="">
        <dc:format>image/svg+xml</dc:format>
        <dc:type
           rdf:resource="http://purl.org/dc/dcmitype/StillImage" />
        <dc:title />
      </cc:Work>
    </rdf:RDF>
  </metadata>
  <defs
     id="defs6" />
  <sodipodi:namedview
     pagecolor="#ffffff"
     bordercolor="#666666"
     borderopacity="1"
     objecttolerance="10"
     gridtolerance="10"
     guidetolerance="10"
     inkscape:pageopacity="0"
     inkscape:pageshadow="2"
     inkscape:window-width="959"
     inkscape:window-height="1022"
     id="namedview4"
     showgrid="false"
     inkscape:zoom="16.68772"
     inkscape:cx="12.62093"
     inkscape:cy="16.149457"
     inkscape:window-x="0"
     inkscape:window-y="28"
     inkscape:window-maximized="0"
     inkscape:current-layer="svg2"
     fit-margin-top="0"
     fit-margin-left="0"
     fit-margin-right="0"
     fit-margin-bottom="0" />
  <path
     d="m 14.811557,3.8199429 -3.682086,3.6823232 3.676906,3.6771439 c 0.252551,0.25257 0.252551,0.665746 0,0.915724 l -2.712026,2.712201 c -0.249962,0.252571 -0.663112,0.252571 -0.915665,0 L 7.5017799,11.130193 3.819695,14.812516 c -0.2499622,0.249979 -0.6631118,0.249979 -0.9156649,0 L 0.19200408,12.100315 c -0.24996226,-0.252568 -0.24996226,-0.665745 0,-0.915723 L 3.8740918,7.5022661 0.18941485,3.817352 c -0.25255313,-0.2525694 -0.25255313,-0.665746 0,-0.9157244 L 2.9014393,0.18942585 c 0.2499622,-0.2525678 0.663114,-0.2525678 0.9156652,0 L 7.5017799,3.8743412 11.183866,0.19201685 c 0.249962,-0.2499784 0.663114,-0.2499784 0.915665,0 l 2.712026,2.71220175 c 0.251257,0.2525678 0.251257,0.6657459 0,0.9157243 z"
     id="path1020"
     inkscape:connector-curvature="0"
     style="fill:#cccccc" />
</svg>
