<?xml version="1.0" encoding="UTF-8" standalone="no"?>
<!-- Created with Inkscape (http://www.inkscape.org/) -->

<svg
   xmlns:dc="http://purl.org/dc/elements/1.1/"
   xmlns:cc="http://creativecommons.org/ns#"
   xmlns:rdf="http://www.w3.org/1999/02/22-rdf-syntax-ns#"
   xmlns:svg="http://www.w3.org/2000/svg"
   xmlns="http://www.w3.org/2000/svg"
   xmlns:sodipodi="http://sodipodi.sourceforge.net/DTD/sodipodi-0.dtd"
   xmlns:inkscape="http://www.inkscape.org/namespaces/inkscape"
   width="108.18819"
   height="30"
   id="svg3064"
   version="1.1"
   inkscape:version="0.48.4 r9939"
   sodipodi:docname="Nuevo documento 1">
  <defs
     id="defs3066" />
  <sodipodi:namedview
     id="base"
     pagecolor="#ffffff"
     bordercolor="#666666"
     borderopacity="1.0"
     inkscape:pageopacity="0.0"
     inkscape:pageshadow="2"
     inkscape:zoom="0.35"
     inkscape:cx="-381.6202"
     inkscape:cy="237.85715"
     inkscape:document-units="px"
     inkscape:current-layer="layer1"
     showgrid="false"
     fit-margin-top="0"
     fit-margin-left="0"
     fit-margin-right="0"
     fit-margin-bottom="0"
     inkscape:window-width="605"
     inkscape:window-height="452"
     inkscape:window-x="0"
     inkscape:window-y="57"
     inkscape:window-maximized="0" />
  <metadata
     id="metadata3069">
    <rdf:RDF>
      <cc:Work
         rdf:about="">
        <dc:format>image/svg+xml</dc:format>
        <dc:type
           rdf:resource="http://purl.org/dc/dcmitype/StillImage" />
        <dc:title></dc:title>
      </cc:Work>
    </rdf:RDF>
  </metadata>
  <g
     inkscape:label="Capa 1"
     inkscape:groupmode="layer"
     id="layer1"
     transform="translate(-731.6202,-740.21933)">
    <g
       id="g3180"
       inkscape:export-filename="/home/albertoi/WikiPartido/inwik/Diseño/logo_inwik_final.png"
       inkscape:export-xdpi="90"
       inkscape:export-ydpi="90"
       transform="matrix(0.07777778,0,0,0.07777778,621.58538,740.38677)">
      <path
         sodipodi:nodetypes="sssss"
         inkscape:connector-curvature="0"
         id="path4122"
         d="m 1726.1619,227.84716 c 0,85.99859 -69.7156,155.71429 -155.7143,155.71429 -85.9986,0 -155.7143,-69.7157 -155.7143,-155.71429 0,-85.99862 69.7157,-229.9999883 155.7143,-229.9999883 85.9987,0 155.7143,144.0013683 155.7143,229.9999883 z"
         style="fill:#4d4d4d;fill-opacity:1;stroke:none" />
      <path
         style="fill:#ffffff;fill-opacity:1;stroke:none"
         d="m 1692.8339,219.89738 c 0,67.59199 -54.7942,122.38619 -122.3864,122.38619 -67.5921,0 -122.3861,-54.7942 -122.3861,-122.38619 0,-67.59205 54.7941,-180.772328 122.3861,-180.772328 67.5922,0 122.3864,113.180278 122.3864,180.772328 z"
         id="path4124"
         inkscape:connector-curvature="0"
         sodipodi:nodetypes="sssss" />
      <path
         inkscape:connector-curvature="0"
         id="path3899"
         d="m 1569.1773,287.87023 50.4268,0"
         style="fill:none;stroke:#b3b3b3;stroke-width:10;stroke-linecap:butt;stroke-linejoin:miter;stroke-miterlimit:4;stroke-opacity:1;stroke-dasharray:none" />
      <path
         sodipodi:nodetypes="cc"
         inkscape:connector-curvature="0"
         id="path3895"
         d="M 1619.6041,135.45457 1517.4575,237.44341"
         style="fill:none;stroke:#b3b3b3;stroke-width:10;stroke-linecap:butt;stroke-linejoin:miter;stroke-miterlimit:4;stroke-opacity:1;stroke-dasharray:none" />
      <path
         sodipodi:nodetypes="cc"
         inkscape:connector-curvature="0"
         id="path3897"
         d="m 1520.2368,134.16158 50.2335,100.69585"
         style="fill:none;stroke:#b3b3b3;stroke-width:10;stroke-linecap:butt;stroke-linejoin:miter;stroke-miterlimit:4;stroke-opacity:1;stroke-dasharray:none" />
      <path
         inkscape:connector-curvature="0"
         id="path3903"
         d="m 1518.7505,234.85742 0,53.01281"
         style="fill:none;stroke:#b3b3b3;stroke-width:10;stroke-linecap:butt;stroke-linejoin:miter;stroke-miterlimit:4;stroke-opacity:1;stroke-dasharray:none" />
      <path
         sodipodi:nodetypes="cc"
         inkscape:connector-curvature="0"
         id="path3901"
         d="m 1619.6041,183.48884 -50.4268,51.36858"
         style="fill:none;stroke:#b3b3b3;stroke-width:10;stroke-linecap:butt;stroke-linejoin:miter;stroke-miterlimit:4;stroke-opacity:1;stroke-dasharray:none" />
      <path
         inkscape:connector-curvature="0"
         id="path3905"
         d="m 1567.8843,236.15042 0,51.71981"
         style="fill:none;stroke:#b3b3b3;stroke-width:10;stroke-linecap:butt;stroke-linejoin:miter;stroke-miterlimit:4;stroke-opacity:1;stroke-dasharray:none" />
      <rect
         style="fill:#808080;fill-opacity:1;stroke:none"
         id="rect4130"
         width="37.258682"
         height="37.258682"
         x="1501.519"
         y="267.82626"
         rx="13.726884"
         ry="13.726884" />
      <rect
         ry="13.726884"
         rx="13.726884"
         y="267.82626"
         x="1602.1174"
         height="37.258682"
         width="37.258682"
         id="rect4132"
         style="fill:#ff0000;fill-opacity:1;stroke:none" />
      <rect
         style="fill:#ff6600;fill-opacity:1;stroke:none"
         id="rect4134"
         width="37.258682"
         height="37.258682"
         x="1551.8182"
         y="267.82626"
         rx="13.726884"
         ry="13.726884" />
      <rect
         ry="13.726884"
         rx="13.726884"
         y="215.66409"
         x="1501.519"
         height="37.258682"
         width="37.258682"
         id="rect4136"
         style="fill:#55d400;fill-opacity:1;stroke:none" />
      <rect
         ry="13.726884"
         rx="13.726884"
         y="215.66409"
         x="1551.8182"
         height="37.258682"
         width="37.258682"
         id="rect4138"
         style="fill:#ac41ff;fill-opacity:1;stroke:none" />
      <path
         inkscape:connector-curvature="0"
         id="path3863"
         d="m 1518.7505,134.02287 100.8536,0"
         style="fill:none;stroke:#b3b3b3;stroke-width:10;stroke-linecap:butt;stroke-linejoin:miter;stroke-miterlimit:4;stroke-opacity:1;stroke-dasharray:none" />
      <rect
         style="fill:#0088aa;fill-opacity:1;stroke:none"
         id="rect4144"
         width="37.258682"
         height="37.258682"
         x="-1639.3761"
         y="-153.08237"
         rx="13.726884"
         ry="13.726884"
         transform="scale(-1,-1)" />
      <rect
         ry="13.726884"
         rx="13.726884"
         y="-153.08237"
         x="-1538.7777"
         height="37.258682"
         width="37.258682"
         id="rect4146"
         style="fill:#cdff05;fill-opacity:1;stroke:none"
         transform="scale(-1,-1)" />
      <rect
         style="fill:#00ffff;fill-opacity:1;stroke:none"
         id="rect4148"
         width="37.258682"
         height="37.258682"
         x="-1589.0769"
         y="-153.08237"
         rx="13.726884"
         ry="13.726884"
         transform="scale(-1,-1)" />
      <rect
         transform="scale(-1,-1)"
         ry="13.726884"
         rx="13.726884"
         y="-201.24454"
         x="-1639.3762"
         height="37.258682"
         width="37.258682"
         id="rect4150"
         style="fill:#fd03b1;fill-opacity:1;stroke:none" />
      <path
         d="m 1907.6727,129.19373 c 10.0169,-2.86177 23.039,-5.58066 39.0662,-8.15667 16.027,-2.57556 33.7713,-3.86345 53.2329,-3.86368 18.3166,2.3e-4 33.6282,2.57602 45.9349,7.72737 12.3064,4.86559 22.0371,11.87745 29.1923,21.0356 7.441,8.87236 12.5925,19.7479 15.4547,32.62666 3.148,12.5929 4.7221,26.47353 4.7223,41.64192 l 0,126.21365 -51.9451,0 0,-118.05699 c -10e-5,-12.02021 -0.8587,-22.18026 -2.5758,-30.48016 -1.4311,-8.58581 -4.0069,-15.45457 -7.7273,-20.60631 -3.4346,-5.4376 -8.2999,-9.30128 -14.5962,-11.59105 -6.0103,-2.57561 -13.4514,-3.8635 -22.3235,-3.86369 -6.5826,1.9e-4 -13.4514,0.42949 -20.6063,1.2879 -7.155,0.85878 -12.4497,1.57427 -15.884,2.14649 l 0,181.16381 -51.9451,0 0,-217.22485"
         style="font-size:429.29812622px;font-style:normal;font-variant:normal;font-weight:500;font-stretch:normal;text-align:start;line-height:125%;letter-spacing:0px;word-spacing:0px;writing-mode:lr-tb;text-anchor:start;fill:#808080;fill-opacity:1;stroke:none;font-family:Ubuntu;-inkscape-font-specification:Ubuntu Medium"
         id="path3151"
         inkscape:connector-curvature="0" />
      <path
         d="m 2288.1248,205.1795 c -6.5828,25.1856 -13.7377,49.79867 -21.4649,73.83927 -7.4413,23.75454 -14.8825,46.22112 -22.3235,67.39981 l -42.5005,0 c -5.7241,-13.16513 -11.7343,-28.19055 -18.0306,-45.0763 -6.2964,-16.88567 -12.5928,-34.91617 -18.8891,-54.09157 -6.2964,-19.1752 -12.5928,-39.35219 -18.8891,-60.53103 -6.2964,-21.17853 -12.4497,-42.78651 -18.4598,-64.82402 l 54.9501,0 c 2.5758,12.02056 5.5808,25.04259 9.0153,39.06613 3.4343,13.73771 7.0118,27.90453 10.7325,42.50051 3.7205,14.31007 7.5841,28.33379 11.591,42.07122 4.0067,13.73763 8.0135,26.33036 12.0204,37.77823 4.2928,-13.16506 8.4427,-26.75949 12.4496,-40.78332 4.2929,-14.02362 8.2996,-28.04734 12.0203,-42.07121 3.7205,-14.02358 7.1549,-27.61801 10.3032,-40.78333 3.4342,-13.45114 6.4393,-26.04387 9.0153,-37.77823 l 39.9247,0 c 2.5756,11.73436 5.4376,24.32709 8.5859,37.77823 3.148,13.16532 6.4393,26.75975 9.8739,40.78333 3.7204,14.02387 7.5841,28.04759 11.5911,42.07121 4.2927,14.02383 8.5857,27.61826 12.8789,40.78332 3.7203,-11.44787 7.584,-24.0406 11.591,-37.77823 4.0066,-13.73743 7.8703,-27.76115 11.5911,-42.07122 4.0065,-14.59598 7.7271,-28.7628 11.1617,-42.50051 3.4342,-14.02354 6.4392,-27.04557 9.0153,-39.06613 l 53.6623,0 c -6.0105,22.03751 -12.1638,43.64549 -18.4598,64.82402 -6.2967,21.17884 -12.5931,41.35583 -18.8892,60.53103 -6.2966,19.1754 -12.593,37.2059 -18.8891,54.09157 -6.2966,16.88575 -12.4499,31.91117 -18.4598,45.0763 l -42.0712,0 c -7.4414,-21.17869 -15.1687,-43.64527 -23.1821,-67.39981 -7.7276,-24.0406 -14.8825,-48.65367 -21.4649,-73.83927"
         style="font-size:429.29812622px;font-style:normal;font-variant:normal;font-weight:500;font-stretch:normal;text-align:start;line-height:125%;letter-spacing:0px;word-spacing:0px;writing-mode:lr-tb;text-anchor:start;fill:#808080;fill-opacity:1;stroke:none;font-family:Ubuntu;-inkscape-font-specification:Ubuntu Medium"
         id="path3153"
         inkscape:connector-curvature="0" />
      <path
         d="m 2658.9042,209.47248 c 6.5825,-6.86863 13.5944,-14.16669 21.0356,-21.89421 7.4411,-8.0134 14.7392,-15.88385 21.8942,-23.61139 7.1549,-8.01338 13.8805,-15.59764 20.1771,-22.75281 6.5824,-7.44095 12.1632,-13.88042 16.7426,-19.31841 l 61.3896,0 c -14.3101,16.02734 -29.4787,32.62685 -45.5056,49.79858 -15.7411,17.17208 -31.6251,33.91469 -47.6521,50.22788 8.5858,7.15509 17.6011,15.88414 27.0458,26.18719 9.4444,10.01704 18.6027,20.74949 27.4751,32.19736 8.8719,11.448 17.1717,22.89594 24.8993,34.34385 7.7271,11.44797 14.1666,22.03731 19.3184,31.76806 l -60.1018,0 c -5.1517,-8.87215 -11.1619,-18.1736 -18.0305,-27.90438 -6.5827,-9.73072 -13.7377,-19.17527 -21.4649,-28.33368 -7.7275,-9.15829 -15.5979,-17.74424 -23.6114,-25.75788 -8.0136,-8.29968 -15.8841,-15.31154 -23.6114,-21.03561 l 0,103.03155 -51.945,0 0,-324.549384 51.945,-8.585963 0,196.189247"
         style="font-size:429.29812622px;font-style:normal;font-variant:normal;font-weight:500;font-stretch:normal;text-align:start;line-height:125%;letter-spacing:0px;word-spacing:0px;writing-mode:lr-tb;text-anchor:start;fill:#808080;fill-opacity:1;stroke:none;font-family:Ubuntu;-inkscape-font-specification:Ubuntu Medium"
         id="path3157"
         inkscape:connector-curvature="0" />
      <g
         id="g3170">
        <path
           inkscape:connector-curvature="0"
           id="path3161"
           d="m 1839.9346,346.41858 -51.9451,0 0,-224.52292 51.9451,0 0,224.52292"
           style="font-size:429.29812622px;font-style:normal;font-variant:normal;font-weight:500;font-stretch:normal;text-align:start;line-height:125%;letter-spacing:0px;word-spacing:0px;writing-mode:lr-tb;text-anchor:start;fill:#808080;fill-opacity:1;stroke:none;font-family:Ubuntu;-inkscape-font-specification:Ubuntu Medium" />
        <rect
           style="fill:#808080;fill-opacity:1;stroke:none"
           id="rect3163"
           width="58.733437"
           height="58.733437"
           x="1784.5953"
           y="21.842705"
           rx="21.638636"
           ry="21.638636" />
      </g>
      <g
         transform="translate(699.8818,0)"
         id="g3174">
        <path
           style="font-size:429.29812622px;font-style:normal;font-variant:normal;font-weight:500;font-stretch:normal;text-align:start;line-height:125%;letter-spacing:0px;word-spacing:0px;writing-mode:lr-tb;text-anchor:start;fill:#808080;fill-opacity:1;stroke:none;font-family:Ubuntu;-inkscape-font-specification:Ubuntu Medium"
           d="m 1839.9346,346.41858 -51.9451,0 0,-224.52292 51.9451,0 0,224.52292"
           id="path3176"
           inkscape:connector-curvature="0" />
        <rect
           ry="21.638636"
           rx="21.638636"
           y="21.842705"
           x="1784.5953"
           height="58.733437"
           width="58.733437"
           id="rect3178"
           style="fill:#808080;fill-opacity:1;stroke:none" />
      </g>
    </g>
  </g>
</svg>
