<?xml version="1.0" encoding="UTF-8" standalone="no"?>
<!-- Created with Inkscape (http://www.inkscape.org/) -->

<svg
   xmlns:dc="http://purl.org/dc/elements/1.1/"
   xmlns:cc="http://creativecommons.org/ns#"
   xmlns:rdf="http://www.w3.org/1999/02/22-rdf-syntax-ns#"
   xmlns:svg="http://www.w3.org/2000/svg"
   xmlns="http://www.w3.org/2000/svg"
   xmlns:sodipodi="http://sodipodi.sourceforge.net/DTD/sodipodi-0.dtd"
   xmlns:inkscape="http://www.inkscape.org/namespaces/inkscape"
   id="svg2"
   version="1.1"
   inkscape:version="0.48.4 r9939"
   width="20"
   height="20"
   sodipodi:docname="search.svg"
   inkscape:export-filename="/home/albertoi/Proyectos/WikiPartido/inwik/web/inwik/skins/common/images/options.png"
   inkscape:export-xdpi="90"
   inkscape:export-ydpi="90">
  <metadata
     id="metadata8">
    <rdf:RDF>
      <cc:Work
         rdf:about="">
        <dc:format>image/svg+xml</dc:format>
        <dc:type
           rdf:resource="http://purl.org/dc/dcmitype/StillImage" />
        <dc:title />
      </cc:Work>
    </rdf:RDF>
  </metadata>
  <defs
     id="defs6">
    <clipPath
       clipPathUnits="userSpaceOnUse"
       id="clipPath912">
      <path
         inkscape:connector-curvature="0"
         d="m 880,724 24,0 0,-24 -24,0 0,24 z"
         id="path914" />
    </clipPath>
    <clipPath
       clipPathUnits="userSpaceOnUse"
       id="clipPath916">
      <path
         inkscape:connector-curvature="0"
         d="m 0,24 24,0 0,-24.0000152588 -24,0 L 0,24 z"
         id="path918" />
    </clipPath>
  </defs>
  <sodipodi:namedview
     pagecolor="#ffffff"
     bordercolor="#666666"
     borderopacity="1"
     objecttolerance="10"
     gridtolerance="10"
     guidetolerance="10"
     inkscape:pageopacity="0"
     inkscape:pageshadow="2"
     inkscape:window-width="1920"
     inkscape:window-height="1024"
     id="namedview4"
     showgrid="false"
     inkscape:zoom="16.68772"
     inkscape:cx="1.504972"
     inkscape:cy="16.149456"
     inkscape:window-x="0"
     inkscape:window-y="27"
     inkscape:window-maximized="1"
     inkscape:current-layer="svg2" />
  <g
     id="g910"
     transform="matrix(1.25,0,0,-1.25,-1132.299,897.01493)" />
  <path
     inkscape:connector-curvature="0"
     id="path932"
     style="fill:#999999;fill-opacity:1;fill-rule:nonzero;stroke:none"
     d="m 7.432819,12.577897 c -2.841624,0 -5.145798,-2.304042 -5.145798,-5.1455031 0,-2.8414614 2.304174,-5.1455035 5.145798,-5.1455035 2.841624,0 5.145797,2.3040421 5.145797,5.1455035 0,2.8414611 -2.304173,5.1455031 -5.145797,5.1455031 m 6.86335,0 -0.907947,0 -0.314466,-0.313304 C 14.188679,10.964496 14.865638,9.279058 14.865638,7.4323939 14.865638,3.3274255 11.538022,0 7.432819,0 3.327616,0 0,3.3274255 0,7.4323939 c 0,4.1049681 3.327616,7.4323941 7.432819,7.4323941 1.846769,0 3.53116,-0.67692 4.831332,-1.791779 l 0.315609,0.314448 0,0.905608 L 18.295026,20 20,18.295123 14.296169,12.577897 z" />
</svg>
