<?xml version="1.0" encoding="UTF-8" standalone="no"?>
<!-- Created with Inkscape (http://www.inkscape.org/) -->

<svg
   xmlns:dc="http://purl.org/dc/elements/1.1/"
   xmlns:cc="http://creativecommons.org/ns#"
   xmlns:rdf="http://www.w3.org/1999/02/22-rdf-syntax-ns#"
   xmlns:svg="http://www.w3.org/2000/svg"
   xmlns="http://www.w3.org/2000/svg"
   xmlns:sodipodi="http://sodipodi.sourceforge.net/DTD/sodipodi-0.dtd"
   xmlns:inkscape="http://www.inkscape.org/namespaces/inkscape"
   id="svg2"
   version="1.1"
   inkscape:version="0.48.4 r9939"
   width="20"
   height="20"
   sodipodi:docname="login.svg"
   inkscape:export-filename="/home/albertoi/Proyectos/WikiPartido/inwik/web/inwik/skins/common/images/options.png"
   inkscape:export-xdpi="90"
   inkscape:export-ydpi="90">
  <metadata
     id="metadata8">
    <rdf:RDF>
      <cc:Work
         rdf:about="">
        <dc:format>image/svg+xml</dc:format>
        <dc:type
           rdf:resource="http://purl.org/dc/dcmitype/StillImage" />
        <dc:title></dc:title>
      </cc:Work>
    </rdf:RDF>
  </metadata>
  <defs
     id="defs6" />
  <sodipodi:namedview
     pagecolor="#ffffff"
     bordercolor="#666666"
     borderopacity="1"
     objecttolerance="10"
     gridtolerance="10"
     guidetolerance="10"
     inkscape:pageopacity="0"
     inkscape:pageshadow="2"
     inkscape:window-width="1920"
     inkscape:window-height="1023"
     id="namedview4"
     showgrid="false"
     inkscape:zoom="16.68772"
     inkscape:cx="12.950514"
     inkscape:cy="16.269305"
     inkscape:window-x="0"
     inkscape:window-y="28"
     inkscape:window-maximized="1"
     inkscape:current-layer="svg2" />
  <g
     transform="matrix(0.90900827,0,0,0.90900827,-350.92673,-1310.7899)"
     id="share_x5F_alt"
     style="fill:#999999;fill-opacity:1">
    <path
       inkscape:connector-curvature="0"
       d="m 404.5,1457 c -0.904,0 -1.721,0.352 -2.342,0.915 l -6.412,-3.782 c 0.086,-0.365 0.145,-0.74 0.145,-1.133 0,-0.404 -0.062,-0.791 -0.155,-1.167 l 6.394,-3.771 c 0.625,0.577 1.453,0.938 2.371,0.938 1.934,0 3.5,-1.566 3.5,-3.5 0,-1.934 -1.566,-3.5 -3.5,-3.5 -1.934,0 -3.5,1.566 -3.5,3.5 0,0.291 0.046,0.569 0.113,0.84 l -6.254,3.688 c -0.895,-1.158 -2.281,-1.918 -3.859,-1.918 -2.701,0 -4.891,2.188 -4.891,4.891 0,2.703 2.189,4.891 4.891,4.891 1.59,0 2.988,-0.771 3.882,-1.945 l 6.241,3.681 c -0.072,0.281 -0.123,0.57 -0.123,0.874 0,1.934 1.566,3.5 3.5,3.5 1.934,0 3.5,-1.566 3.5,-3.5 0,-1.934 -1.567,-3.502 -3.501,-3.502 z"
       id="path573"
       style="fill:#999999;fill-opacity:1" />
  </g>
</svg>
