<?xml version="1.0" encoding="UTF-8" standalone="no"?>
<!-- Created with Inkscape (http://www.inkscape.org/) -->

<svg
   xmlns:dc="http://purl.org/dc/elements/1.1/"
   xmlns:cc="http://creativecommons.org/ns#"
   xmlns:rdf="http://www.w3.org/1999/02/22-rdf-syntax-ns#"
   xmlns:svg="http://www.w3.org/2000/svg"
   xmlns="http://www.w3.org/2000/svg"
   xmlns:sodipodi="http://sodipodi.sourceforge.net/DTD/sodipodi-0.dtd"
   xmlns:inkscape="http://www.inkscape.org/namespaces/inkscape"
   width="55"
   height="55"
   id="svg4274"
   version="1.1"
   inkscape:version="0.48.4 r9939"
   sodipodi:docname="info.svg">
  <defs
     id="defs4276" />
  <sodipodi:namedview
     id="base"
     pagecolor="#ffffff"
     bordercolor="#666666"
     borderopacity="1.0"
     inkscape:pageopacity="0.0"
     inkscape:pageshadow="2"
     inkscape:zoom="3.959798"
     inkscape:cx="45.248493"
     inkscape:cy="13.014186"
     inkscape:document-units="px"
     inkscape:current-layer="layer1"
     showgrid="false"
     inkscape:window-width="1920"
     inkscape:window-height="1023"
     inkscape:window-x="0"
     inkscape:window-y="28"
     inkscape:window-maximized="1" />
  <metadata
     id="metadata4279">
    <rdf:RDF>
      <cc:Work
         rdf:about="">
        <dc:format>image/svg+xml</dc:format>
        <dc:type
           rdf:resource="http://purl.org/dc/dcmitype/StillImage" />
        <dc:title></dc:title>
      </cc:Work>
    </rdf:RDF>
  </metadata>
  <g
     inkscape:label="Capa 1"
     inkscape:groupmode="layer"
     id="layer1"
     transform="translate(0,-997.36218)">
    <path
       clip-rule="evenodd"
       d="m 41.249969,997.36203 0,10.31277 3.4375,0 0,-10.31277 z m -30.937499,0 0,10.31277 3.437498,0 0,-10.31277 z m 41.249999,17.18777 0,34.375 -48.1249985,0 0,-34.375 z m -3.47187,37.8125 c 3.81562,0 6.90937,-3.0938 6.90937,-6.9094 l 0,-37.7437 c 0,-3.816 -3.09375,-6.9097 -6.90937,-6.9097 l 0.0344,0 0,5.1562 c 0,2.8535 -2.303121,5.1566 -5.15625,5.1566 -2.853121,0 -5.15625,-2.3031 -5.15625,-5.1566 l 0,-5.1562 -20.625001,0 0,5.1562 c 0,2.8535 -2.303121,5.1566 -5.156249,5.1566 -2.8531195,0 -5.1562495,-2.3031 -5.1562495,-5.1566 l 0,-5.1562 0.0344,0 c -3.81562,0 -6.90937,3.0937 -6.90937,6.9097 l 0,37.7093 c 0,3.8157 3.09375,6.9438 6.90937,6.9438 l 41.1812495,0 z"
       id="path207"
       inkscape:connector-curvature="0"
       style="fill:#333333;fill-opacity:1;fill-rule:evenodd"
       sodipodi:nodetypes="ccccccccccccccccssccsssccsssccssscc" />
    <g
       style="font-size:40px;font-style:normal;font-weight:normal;line-height:125%;letter-spacing:0px;word-spacing:0px;fill:#333333;fill-opacity:1;stroke:none;font-family:Sans"
       id="text2999"
       transform="translate(-95.356855,-62.884952)">
      <path
         d="m 104.98779,1086.6782 c 1.52,-0.5866 3,-1.3333 4.44,-2.24 1.43999,-0.9333 2.75999,-2.0933 3.96,-3.48 l 2.64,0 0,27.72 -3.72,0 0,-22.56 c -0.32001,0.2934 -0.72001,0.6 -1.2,0.92 -0.45334,0.32 -0.96001,0.6267 -1.52,0.92 -0.53334,0.2934 -1.10667,0.5734 -1.72,0.84 -0.58667,0.2667 -1.16,0.4934 -1.72,0.68 l -1.16,-2.8"
         style="font-variant:normal;font-stretch:normal;fill:#333333;font-family:Ubuntu;-inkscape-font-specification:Ubuntu"
         id="path3004"
         inkscape:connector-curvature="0" />
      <path
         d="m 121.44592,1099.0782 c 0.50666,-1.1733 1.19999,-2.5333 2.08,-4.08 0.87999,-1.5733 1.86666,-3.1866 2.96,-4.84 1.11999,-1.6533 2.30665,-3.28 3.56,-4.88 1.27999,-1.6 2.55998,-3.04 3.84,-4.32 l 3.56,0 0,17.6 3.28,0 0,3.04 -3.28,0 0,7.08 -3.6,0 0,-7.08 -12.4,0 0,-2.52 m 12.4,-13.72 c -0.80002,0.8534 -1.61335,1.8134 -2.44,2.88 -0.80001,1.04 -1.58668,2.1334 -2.36,3.28 -0.77335,1.1467 -1.50668,2.32 -2.2,3.52 -0.66668,1.2 -1.26668,2.3734 -1.8,3.52 l 8.8,0 0,-13.2"
         style="font-variant:normal;font-stretch:normal;fill:#333333;font-family:Ubuntu;-inkscape-font-specification:Ubuntu"
         id="path3006"
         inkscape:connector-curvature="0" />
    </g>
  </g>
</svg>
