<?xml version="1.0" encoding="UTF-8" standalone="no"?>
<!-- Created with Inkscape (http://www.inkscape.org/) -->

<svg
   xmlns:dc="http://purl.org/dc/elements/1.1/"
   xmlns:cc="http://creativecommons.org/ns#"
   xmlns:rdf="http://www.w3.org/1999/02/22-rdf-syntax-ns#"
   xmlns:svg="http://www.w3.org/2000/svg"
   xmlns="http://www.w3.org/2000/svg"
   xmlns:sodipodi="http://sodipodi.sourceforge.net/DTD/sodipodi-0.dtd"
   xmlns:inkscape="http://www.inkscape.org/namespaces/inkscape"
   width="55"
   height="55"
   id="svg4274"
   version="1.1"
   inkscape:version="0.48.4 r9939"
   sodipodi:docname="proposal.svg">
  <defs
     id="defs4276" />
  <sodipodi:namedview
     id="base"
     pagecolor="#ffffff"
     bordercolor="#666666"
     borderopacity="1.0"
     inkscape:pageopacity="0.0"
     inkscape:pageshadow="2"
     inkscape:zoom="2.8"
     inkscape:cx="42.918985"
     inkscape:cy="17.53105"
     inkscape:document-units="px"
     inkscape:current-layer="layer1"
     showgrid="false"
     inkscape:window-width="1920"
     inkscape:window-height="1023"
     inkscape:window-x="0"
     inkscape:window-y="28"
     inkscape:window-maximized="1" />
  <metadata
     id="metadata4279">
    <rdf:RDF>
      <cc:Work
         rdf:about="">
        <dc:format>image/svg+xml</dc:format>
        <dc:type
           rdf:resource="http://purl.org/dc/dcmitype/StillImage" />
        <dc:title></dc:title>
      </cc:Work>
    </rdf:RDF>
  </metadata>
  <g
     inkscape:label="Capa 1"
     inkscape:groupmode="layer"
     id="layer1"
     transform="translate(0,-997.36218)">
    <path
       inkscape:connector-curvature="0"
       d="m 40.44899,1048.7355 0,-8.5409 c 0,-2.3984 0.9423,-4.7879 4.9391,-2.4578 4.0049,2.3347 9.61192,3.9828 9.61192,-5.3902 0,-9.3727 -5.60692,-7.7245 -9.61192,-5.3898 -3.9968,2.3301 -4.9355,-0.059 -4.9391,-2.458 l 0,-8.541 c 0,-1.9948 -1.5868,-3.6267 -3.5254,-3.6267 l -10.1911,0 c -2.336,0 -4.672,-0.9615 -2.4027,-5.0811 2.2695,-4.1196 3.8714,-9.88781 -5.2399,-9.88781 -9.1108,0 -7.5087,5.76801 -5.2395,9.88781 2.2695,4.1196 -0.066,5.0811 -2.4029,5.0811 l -7.922,0 c -1.9393,0 -3.525399996633,1.6322 -3.525399996633,3.6267 l 0,8.527 c 0,2.4033 0.934699996633,4.8064 4.939399996633,2.472 4.0043,-2.3346 9.6115,-3.9829 9.6115,5.3898 0,9.3728 -5.6068,7.7247 -9.6115,5.39 -4.0048,-2.3344 -4.9394999966326,0.069 -4.9394999966326,2.472 l 0,8.5267 c 0,1.9949 1.5865999966326,3.6269 3.5253999966326,3.6269 l 33.3983,0 c 1.9387,2e-4 3.5253,-1.6317 3.5253,-3.6267 z"
       id="path70"
       style="fill:#333333;fill-opacity:1" />
  </g>
</svg>
