<?xml version="1.0" encoding="UTF-8" standalone="no"?>
<!-- Created with Inkscape (http://www.inkscape.org/) -->

<svg
   xmlns:dc="http://purl.org/dc/elements/1.1/"
   xmlns:cc="http://creativecommons.org/ns#"
   xmlns:rdf="http://www.w3.org/1999/02/22-rdf-syntax-ns#"
   xmlns:svg="http://www.w3.org/2000/svg"
   xmlns="http://www.w3.org/2000/svg"
   xmlns:sodipodi="http://sodipodi.sourceforge.net/DTD/sodipodi-0.dtd"
   xmlns:inkscape="http://www.inkscape.org/namespaces/inkscape"
   width="55"
   height="55"
   id="svg4274"
   version="1.1"
   inkscape:version="0.48.4 r9939"
   sodipodi:docname="event.svg">
  <defs
     id="defs4276" />
  <sodipodi:namedview
     id="base"
     pagecolor="#ffffff"
     bordercolor="#666666"
     borderopacity="1.0"
     inkscape:pageopacity="0.0"
     inkscape:pageshadow="2"
     inkscape:zoom="3.959798"
     inkscape:cx="45.248493"
     inkscape:cy="13.014186"
     inkscape:document-units="px"
     inkscape:current-layer="layer1"
     showgrid="false"
     inkscape:window-width="1920"
     inkscape:window-height="1023"
     inkscape:window-x="0"
     inkscape:window-y="28"
     inkscape:window-maximized="1" />
  <metadata
     id="metadata4279">
    <rdf:RDF>
      <cc:Work
         rdf:about="">
        <dc:format>image/svg+xml</dc:format>
        <dc:type
           rdf:resource="http://purl.org/dc/dcmitype/StillImage" />
        <dc:title></dc:title>
      </cc:Work>
    </rdf:RDF>
  </metadata>
  <g
     inkscape:label="Capa 1"
     inkscape:groupmode="layer"
     id="layer1"
     transform="translate(0,-997.36218)">
    <path
       clip-rule="evenodd"
       d="m 41.250024,1011.1122 v -3.4375 H 13.749979 v 3.4375 h 27.500045 z m 0,6.8749 v -3.4375 H 13.749979 v 3.4375 h 27.500045 z m 0,6.8751 v -3.4375 H 13.749979 v 3.4375 h 27.500045 z m 0,6.8749 v -3.4374 H 13.749979 v 3.4374 h 27.500045 z m -20.625031,6.8751 h 13.750011 v 3.4375 H 20.624993 v -3.4375 z m -20.6250275,-3.4375 3.334377,17.1875 H 51.562524 l 3.43751,-17.1875 H -3.45e-5 z m 48.1250585,-3.4376 h 3.33439 l -3.60939,-34.37492 H 6.8406025 l -3.3,34.37492 h 3.3 c 0,-6.8749 3.5062605,-27.5 3.5062605,-27.5 h 34.375041 l 3.40312,27.5 z"
       id="path249"
       inkscape:connector-curvature="0"
       style="fill:#333333;fill-opacity:1;fill-rule:evenodd" />
  </g>
</svg>
