<?xml version="1.0" encoding="UTF-8" standalone="no"?>
<!-- Created with Inkscape (http://www.inkscape.org/) -->

<svg
   xmlns:dc="http://purl.org/dc/elements/1.1/"
   xmlns:cc="http://creativecommons.org/ns#"
   xmlns:rdf="http://www.w3.org/1999/02/22-rdf-syntax-ns#"
   xmlns:svg="http://www.w3.org/2000/svg"
   xmlns="http://www.w3.org/2000/svg"
   xmlns:sodipodi="http://sodipodi.sourceforge.net/DTD/sodipodi-0.dtd"
   xmlns:inkscape="http://www.inkscape.org/namespaces/inkscape"
   width="55"
   height="55"
   id="svg4274"
   version="1.1"
   inkscape:version="0.48.4 r9939"
   sodipodi:docname="wins.svg">
  <defs
     id="defs4276" />
  <sodipodi:namedview
     id="base"
     pagecolor="#ffffff"
     bordercolor="#666666"
     borderopacity="1.0"
     inkscape:pageopacity="0.0"
     inkscape:pageshadow="2"
     inkscape:zoom="5.6"
     inkscape:cx="42.27104"
     inkscape:cy="19.746405"
     inkscape:document-units="px"
     inkscape:current-layer="layer1"
     showgrid="false"
     inkscape:window-width="1920"
     inkscape:window-height="1023"
     inkscape:window-x="0"
     inkscape:window-y="28"
     inkscape:window-maximized="1" />
  <metadata
     id="metadata4279">
    <rdf:RDF>
      <cc:Work
         rdf:about="">
        <dc:format>image/svg+xml</dc:format>
        <dc:type
           rdf:resource="http://purl.org/dc/dcmitype/StillImage" />
      </cc:Work>
    </rdf:RDF>
  </metadata>
  <g
     inkscape:label="Capa 1"
     inkscape:groupmode="layer"
     id="layer1"
     transform="translate(0,-997.36218)">
    <g
       transform="matrix(2.2916667,0,0,2.2916667,-444.58334,225.0705)"
       id="cup"
       style="fill:#333333">
      <path
         inkscape:connector-curvature="0"
         d="m 216,339 h -3 c 0,-0.499 0,-1.862 0,-2 h -14 c 0,0.138 0,1.501 0,2 h -3 c -0.55,0 -1,0.45 -1,1 0,2.955 0,6 1.203,8.031 1.646,2.778 4.726,4.107 7.874,3.957 0.431,0.681 0.758,1.361 0.923,2.063 V 355 c 0,0.852 -0.366,1.511 -0.782,2 H 203 v 1 h -1 v 3 h 8 v -3 h -1 v -1 h -1.218 C 207.366,356.511 207,355.852 207,355 v -1.148 c 0.136,-0.683 0.384,-1.313 0.708,-1.91 1.27,0.393 3.263,-0.178 4.454,-0.662 1.394,-0.566 2.304,-1.394 3.378,-2.803 1.08,-1.417 1.46,-1.965 1.46,-8.477 0,-0.55 -0.45,-1 -1,-1 z m -17.088,9.313 c -2.164,-2.202 -1.984,-4.458 -1.943,-7.313 H 199 c 0,1.761 -0.048,2.473 0.589,4.148 0.672,1.771 1.836,3.282 2.986,4.766 -1.585,-0.191 -2.795,-0.717 -3.663,-1.601 0.868,0.884 -2.013,-2.047 0,0 z m 14.199,-0.002 c -1.025,1.025 -2.272,1.49 -4.044,1.641 1.127,-1.422 2.235,-2.648 3.152,-4.437 C 213.136,343.726 213,342.908 213,341 h 2.01 c 0,0.551 0.018,1.496 0.018,2 0,2.91 -0.891,4.285 -1.917,5.311 z"
         id="path1605"
         style="fill:#333333" />
    </g>
  </g>
</svg>
