<?xml version="1.0" encoding="UTF-8" standalone="no"?>
<!-- Created with Inkscape (http://www.inkscape.org/) -->

<svg
   xmlns:dc="http://purl.org/dc/elements/1.1/"
   xmlns:cc="http://creativecommons.org/ns#"
   xmlns:rdf="http://www.w3.org/1999/02/22-rdf-syntax-ns#"
   xmlns:svg="http://www.w3.org/2000/svg"
   xmlns="http://www.w3.org/2000/svg"
   xmlns:sodipodi="http://sodipodi.sourceforge.net/DTD/sodipodi-0.dtd"
   xmlns:inkscape="http://www.inkscape.org/namespaces/inkscape"
   id="svg2"
   version="1.1"
   inkscape:version="0.48.4 r9939"
   width="40"
   height="40.000168"
   xml:space="preserve"
   sodipodi:docname="fb.svg"><metadata
     id="metadata8"><rdf:RDF><cc:Work
         rdf:about=""><dc:format>image/svg+xml</dc:format><dc:type
           rdf:resource="http://purl.org/dc/dcmitype/StillImage" /><dc:title></dc:title></cc:Work></rdf:RDF></metadata><defs
     id="defs6"><clipPath
       clipPathUnits="userSpaceOnUse"
       id="clipPath40"><path
         d="M 0,500 1024,500 1024,0 0,0 0,500 z"
         id="path42"
         inkscape:connector-curvature="0" /></clipPath><clipPath
       clipPathUnits="userSpaceOnUse"
       id="clipPath52"><path
         d="M 0,500 1024,500 1024,0 0,0 0,500 z"
         id="path54"
         inkscape:connector-curvature="0" /></clipPath></defs><sodipodi:namedview
     pagecolor="#ffffff"
     bordercolor="#666666"
     borderopacity="1"
     objecttolerance="10"
     gridtolerance="10"
     guidetolerance="10"
     inkscape:pageopacity="0"
     inkscape:pageshadow="2"
     inkscape:window-width="959"
     inkscape:window-height="1023"
     id="namedview4"
     showgrid="false"
     fit-margin-top="0"
     fit-margin-left="0"
     fit-margin-right="0"
     fit-margin-bottom="0"
     inkscape:zoom="1.353125"
     inkscape:cx="227.32805"
     inkscape:cy="237.29205"
     inkscape:window-x="960"
     inkscape:window-y="28"
     inkscape:window-maximized="0"
     inkscape:current-layer="g10" /><g
     id="g10"
     inkscape:groupmode="layer"
     inkscape:label="FB-fLogo-online-broadcast"
     transform="matrix(1.25,0,0,-1.25,719.07623,184.81444)"><g
       id="g3057"
       transform="matrix(0.11989833,0,0,0.11989833,-506.28815,101.96103)"><g
         transform="translate(-709.46882,-23.648961)"
         id="g48"><rect
           transform="scale(1,-1)"
           y="-406.39429"
           x="134.20784"
           height="266.89279"
           width="266.89279"
           id="rect3051"
           style="fill:#3b5998;fill-opacity:1;stroke:none" /><g
           id="g60"
           transform="translate(318.34663,139.50038)"><path
             d="m 0,0 0,103.355 34.693,0 5.194,40.28 -39.887,0 0,25.717 c 0,11.662 3.238,19.609 19.962,19.609 l 21.33,0.01 0,36.026 c -3.69,0.49 -16.351,1.587 -31.081,1.587 -30.753,0 -51.806,-18.771 -51.806,-53.244 l 0,-29.705 -34.781,0 0,-40.28 34.781,0 L -41.595,0 0,0 z"
             style="fill:#ffffff;fill-opacity:1;fill-rule:nonzero;stroke:none"
             id="path62"
             inkscape:connector-curvature="0" /></g></g></g></g></svg>
