<?xml version="1.0" encoding="UTF-8" standalone="no"?>
<!-- Created with Inkscape (http://www.inkscape.org/) -->

<svg
   xmlns:dc="http://purl.org/dc/elements/1.1/"
   xmlns:cc="http://creativecommons.org/ns#"
   xmlns:rdf="http://www.w3.org/1999/02/22-rdf-syntax-ns#"
   xmlns:svg="http://www.w3.org/2000/svg"
   xmlns="http://www.w3.org/2000/svg"
   xmlns:sodipodi="http://sodipodi.sourceforge.net/DTD/sodipodi-0.dtd"
   xmlns:inkscape="http://www.inkscape.org/namespaces/inkscape"
   id="svg2"
   version="1.1"
   inkscape:version="0.48.4 r9939"
   width="40"
   height="40.000168"
   xml:space="preserve"
   sodipodi:docname="twitter.svg"><metadata
     id="metadata8"><rdf:RDF><cc:Work
         rdf:about=""><dc:format>image/svg+xml</dc:format><dc:type
           rdf:resource="http://purl.org/dc/dcmitype/StillImage" /><dc:title></dc:title></cc:Work></rdf:RDF></metadata><defs
     id="defs6"><clipPath
       clipPathUnits="userSpaceOnUse"
       id="clipPath40"><path
         d="M 0,500 1024,500 1024,0 0,0 0,500 z"
         id="path42"
         inkscape:connector-curvature="0" /></clipPath><clipPath
       clipPathUnits="userSpaceOnUse"
       id="clipPath52"><path
         d="M 0,500 1024,500 1024,0 0,0 0,500 z"
         id="path54"
         inkscape:connector-curvature="0" /></clipPath></defs><sodipodi:namedview
     pagecolor="#ffffff"
     bordercolor="#666666"
     borderopacity="1"
     objecttolerance="10"
     gridtolerance="10"
     guidetolerance="10"
     inkscape:pageopacity="0"
     inkscape:pageshadow="2"
     inkscape:window-width="1183"
     inkscape:window-height="778"
     id="namedview4"
     showgrid="false"
     fit-margin-top="0"
     fit-margin-left="0"
     fit-margin-right="0"
     fit-margin-bottom="0"
     inkscape:zoom="6.6935149"
     inkscape:cx="6.3035454"
     inkscape:cy="12.605868"
     inkscape:window-x="52"
     inkscape:window-y="219"
     inkscape:window-maximized="0"
     inkscape:current-layer="g10" /><g
     id="g10"
     inkscape:groupmode="layer"
     inkscape:label="FB-fLogo-online-broadcast"
     transform="matrix(1.25,0,0,-1.25,719.07623,184.81444)"><g
       transform="matrix(0.69333102,0,0,0.70917271,-834.35047,-85.185504)"
       inkscape:label="ink_ext_XXXXXX"
       id="g3057"><g
         transform="scale(0.1,0.1)"
         id="g3059"><path
           id="path3061"
           style="fill:#de3733;fill-opacity:1;fill-rule:nonzero;stroke:none"
           d="m 4184.01,3286.04 -432.73,0 c -7.95,0 -14.4,-6.46 -14.4,-14.4 l 0,-422.41 c 0,-7.98 6.45,-14.42 14.4,-14.42 l 432.73,0 c 7.96,0 14.41,6.44 14.41,14.42 l 0,422.41 c 0,7.94 -6.45,14.4 -14.41,14.4"
           inkscape:connector-curvature="0" /><path
           id="path3063"
           style="fill:#ffffff;fill-opacity:1;fill-rule:nonzero;stroke:none"
           d="m 3926.63,2922.14 c -43.23,0 -71.11,20.68 -71.11,49.43 0,28.75 25.85,38.48 34.74,41.7 16.97,5.7 38.79,6.51 42.43,6.51 4.05,0 6.07,0 9.28,-0.41 30.74,-21.88 44.07,-32.78 44.07,-53.48 0,-25.08 -20.61,-43.75 -59.41,-43.75 m -0.4,162.84 c -34.77,0 -50.52,44.94 -50.52,72.06 0,10.56 2,21.46 8.88,29.97 6.48,8.11 17.77,13.37 28.31,13.37 33.52,0 50.9,-45.34 50.9,-74.51 0,-7.29 -0.8,-20.23 -10.1,-29.57 -6.49,-6.49 -17.37,-11.32 -27.47,-11.32 m 52.93,-46.57 -14.56,11.31 c -4.43,3.67 -10.5,8.53 -10.5,17.42 0,8.92 6.07,14.59 11.33,19.85 16.96,13.35 33.91,27.56 33.91,57.5 0,30.79 -19.37,46.99 -28.66,54.68 l 25.04,0 26.28,16.51 -79.62,0 c -21.84,0 -53.33,-5.17 -76.37,-24.2 -17.38,-14.98 -25.85,-35.65 -25.85,-54.26 0,-31.58 24.24,-63.59 67.07,-63.59 4.04,0 8.46,0.4 12.92,0.81 -2.01,-4.86 -4.03,-8.92 -4.03,-15.79 0,-12.55 6.45,-20.24 12.13,-27.53 -18.19,-1.25 -52.16,-3.26 -77.2,-18.65 -23.84,-14.18 -31.1,-34.82 -31.1,-49.39 0,-29.98 28.26,-57.91 86.87,-57.91 69.5,0 106.29,38.45 106.29,76.52 0,27.97 -16.17,41.74 -33.95,56.72"
           inkscape:connector-curvature="0" /><path
           id="path3065"
           style="fill:#ffffff;fill-opacity:1;fill-rule:nonzero;stroke:none"
           d="m 4081.21,3085.59 0,40.49 -20,0 0,-40.49 -40.42,0 0,-20.21 40.42,0 0,-40.74 20,0 0,40.74 40.62,0 0,20.21 -40.62,0"
           inkscape:connector-curvature="0" /></g></g></g></svg>
