<?xml version="1.0" encoding="UTF-8" standalone="no"?>
<!-- Created with Inkscape (http://www.inkscape.org/) -->

<svg
   xmlns:dc="http://purl.org/dc/elements/1.1/"
   xmlns:cc="http://creativecommons.org/ns#"
   xmlns:rdf="http://www.w3.org/1999/02/22-rdf-syntax-ns#"
   xmlns:svg="http://www.w3.org/2000/svg"
   xmlns="http://www.w3.org/2000/svg"
   xmlns:sodipodi="http://sodipodi.sourceforge.net/DTD/sodipodi-0.dtd"
   xmlns:inkscape="http://www.inkscape.org/namespaces/inkscape"
   id="svg2"
   version="1.1"
   inkscape:version="0.48.4 r9939"
   width="40"
   height="40.000168"
   xml:space="preserve"
   sodipodi:docname="pocket.svg"><metadata
     id="metadata8"><rdf:RDF><cc:Work
         rdf:about=""><dc:format>image/svg+xml</dc:format><dc:type
           rdf:resource="http://purl.org/dc/dcmitype/StillImage" /><dc:title></dc:title></cc:Work></rdf:RDF></metadata><defs
     id="defs6"><clipPath
       clipPathUnits="userSpaceOnUse"
       id="clipPath40"><path
         d="M 0,500 1024,500 1024,0 0,0 0,500 z"
         id="path42"
         inkscape:connector-curvature="0" /></clipPath><clipPath
       clipPathUnits="userSpaceOnUse"
       id="clipPath52"><path
         d="M 0,500 1024,500 1024,0 0,0 0,500 z"
         id="path54"
         inkscape:connector-curvature="0" /></clipPath></defs><sodipodi:namedview
     pagecolor="#ffffff"
     bordercolor="#666666"
     borderopacity="1"
     objecttolerance="10"
     gridtolerance="10"
     guidetolerance="10"
     inkscape:pageopacity="0"
     inkscape:pageshadow="2"
     inkscape:window-width="1920"
     inkscape:window-height="1023"
     id="namedview4"
     showgrid="false"
     fit-margin-top="0"
     fit-margin-left="0"
     fit-margin-right="0"
     fit-margin-bottom="0"
     inkscape:zoom="3.1509826"
     inkscape:cx="2.0984665"
     inkscape:cy="-11.768412"
     inkscape:window-x="0"
     inkscape:window-y="28"
     inkscape:window-maximized="1"
     inkscape:current-layer="g10" /><g
     id="g10"
     inkscape:groupmode="layer"
     inkscape:label="FB-fLogo-online-broadcast"
     transform="matrix(1.25,0,0,-1.25,719.07623,184.81444)"><g
       id="g3368"><rect
         transform="scale(1,-1)"
         y="-147.85149"
         x="-575.26099"
         height="32"
         width="32"
         id="rect3362"
         style="fill:#ff6400;fill-opacity:1;stroke:none" /><path
         inkscape:connector-curvature="0"
         d="m -563.6762,124.95218 c 1.9046,-0.14715 5.06543,0.0462 6.55013,-0.99163 0.53126,-0.79925 -0.45741,-5.2228 -0.11683,-5.73353 0.75859,-0.22319 1.62627,5.1831 1.14591,6.5265 -0.36371,1.02562 -6.8209,0.48022 -7.57921,0.19866 z m -8.02972,8.05858 c -1.62542,-2.56182 -3.1103,-5.56226 -2.54334,-8.68464 0.52106,-3.26437 3.67925,-5.56685 6.81949,-5.97673 3.2243,-0.37538 6.4417,-0.28022 9.67393,-0.0475 0.54505,0.52697 -2.6376,0.51275 -3.97807,0.7058 -3.0577,0.3462 -6.37503,0.40962 -8.99666,2.22545 -2.44247,1.8275 -2.76265,5.41228 -1.59161,8.05468 0.98205,2.49326 2.44767,4.90321 3.9895,6.9862 -1.2022,-0.99854 -2.31298,-1.7434 -3.37324,-3.26322 z m 18.80754,10.45309 c -2.8059,1.44745 -5.92338,2.32403 -9.18706,1.56078 -1.75349,-0.32405 -3.81884,-1.28189 -4.99365,-2.88616 -1.54052,-1.83971 -1.60039,-4.51567 -0.59001,-6.61938 0.78532,-1.62095 1.97893,-3.42427 3.91291,-3.69459 1.66329,-0.24949 3.49082,-0.0241 4.90374,0.93644 -1.67992,-0.28888 -3.62608,-0.88607 -5.13485,0.23678 -2.52852,1.61719 -3.75811,5.2872 -2.22298,7.96601 1.23318,2.33561 3.71721,2.99357 6.34546,3.10922 3.50471,0.15419 6.86368,-1.84537 8.1525,-2.33242 1.24187,-0.39103 3.02275,-0.88623 3.90638,0.43219 0.51644,0.61249 0.31007,2.30005 -0.10993,2.4566 0.12136,-1.18224 -0.74565,-2.66921 -2.0952,-2.28141 -1.00802,0.23799 -1.93539,0.72142 -2.88731,1.11594 z m 6.7054,-3.96692 c -2.17349,-2.20432 -6.09792,-2.1408 -7.55749,-5.11799 -1.24509,-3.53075 1.68718,-9.17194 2.9113,-12.39082 0.82924,-1.66188 -6.47731,-3.26419 -5.58366,-3.67562 5.1561,0.0584 7.35481,1.93994 6.73609,4.24886 -0.59199,2.20938 -3.26453,6.6192 -3.26453,10.14277 0.0746,2.66139 3.05175,3.47863 4.969,4.56319 2.2278,0.99878 4.31166,3.22719 3.73563,5.84106 -0.0245,0.92198 -1.63023,3.99157 -0.97478,1.61219 0.35758,-1.75658 0.52947,-3.92463 -0.97156,-5.22364 z"
         style="fill:#ffffff;fill-opacity:1"
         id="path1445" /></g></g></svg>
