<?xml version="1.0" encoding="UTF-8" standalone="no"?>
<!-- Created with Inkscape (http://www.inkscape.org/) -->

<svg
   xmlns:dc="http://purl.org/dc/elements/1.1/"
   xmlns:cc="http://creativecommons.org/ns#"
   xmlns:rdf="http://www.w3.org/1999/02/22-rdf-syntax-ns#"
   xmlns:svg="http://www.w3.org/2000/svg"
   xmlns="http://www.w3.org/2000/svg"
   xmlns:sodipodi="http://sodipodi.sourceforge.net/DTD/sodipodi-0.dtd"
   xmlns:inkscape="http://www.inkscape.org/namespaces/inkscape"
   id="svg2"
   version="1.1"
   inkscape:version="0.48.4 r9939"
   width="40"
   height="40.000168"
   xml:space="preserve"
   sodipodi:docname="tumblr.svg"><metadata
     id="metadata8"><rdf:RDF><cc:Work
         rdf:about=""><dc:format>image/svg+xml</dc:format><dc:type
           rdf:resource="http://purl.org/dc/dcmitype/StillImage" /><dc:title></dc:title></cc:Work></rdf:RDF></metadata><defs
     id="defs6"><clipPath
       clipPathUnits="userSpaceOnUse"
       id="clipPath40"><path
         d="M 0,500 1024,500 1024,0 0,0 0,500 z"
         id="path42"
         inkscape:connector-curvature="0" /></clipPath><clipPath
       clipPathUnits="userSpaceOnUse"
       id="clipPath52"><path
         d="M 0,500 1024,500 1024,0 0,0 0,500 z"
         id="path54"
         inkscape:connector-curvature="0" /></clipPath></defs><sodipodi:namedview
     pagecolor="#ffffff"
     bordercolor="#666666"
     borderopacity="1"
     objecttolerance="10"
     gridtolerance="10"
     guidetolerance="10"
     inkscape:pageopacity="0"
     inkscape:pageshadow="2"
     inkscape:window-width="1920"
     inkscape:window-height="1023"
     id="namedview4"
     showgrid="false"
     fit-margin-top="0"
     fit-margin-left="0"
     fit-margin-right="0"
     fit-margin-bottom="0"
     inkscape:zoom="6.3019651"
     inkscape:cx="47.633669"
     inkscape:cy="25.616184"
     inkscape:window-x="0"
     inkscape:window-y="28"
     inkscape:window-maximized="1"
     inkscape:current-layer="g10" /><g
     id="g10"
     inkscape:groupmode="layer"
     inkscape:label="FB-fLogo-online-broadcast"
     transform="matrix(1.25,0,0,-1.25,719.07623,184.81444)"><path
       inkscape:connector-curvature="0"
       id="path3221"
       d="m -559.56076,117.57131 c -1.76374,0.0379 -3.53406,0.3687 -5.17481,0.96699 -2.81465,1.02636 -5.3681,2.89627 -7.24579,5.30616 -0.84719,1.08729 -1.56976,2.32692 -2.08743,3.58111 -0.48204,1.16789 -0.81658,2.38387 -0.99704,3.62403 -0.0677,0.46496 -0.0788,0.59705 -0.13858,1.64453 l -0.0564,0.98747 0.004,4.90607 0.004,4.90607 0.0263,0.15624 c 0.0552,0.32808 0.13341,0.57487 0.27126,0.85622 0.28756,0.58691 0.73918,1.0384 1.32581,1.32541 0.28342,0.13867 0.52743,0.21614 0.85622,0.27183 l 0.15624,0.0264 13.20577,0.004 c 9.00112,0.003 13.27155,1.6e-4 13.41236,-0.009 0.11362,-0.007 0.25987,-0.022 0.32499,-0.033 0.61821,-0.105 1.18412,-0.40424 1.61513,-0.85403 0.41986,-0.43815 0.67817,-0.96248 0.76718,-1.55723 0.0213,-0.142 0.0227,-0.41243 0.0264,-5.08106 l 0.004,-4.93107 -0.0566,-0.99371 c -0.0432,-0.75927 -0.0657,-1.06744 -0.095,-1.3062 -0.32312,-2.62693 -1.33082,-5.1234 -2.93645,-7.27474 -1.54063,-2.06425 -3.63586,-3.80035 -5.92769,-4.91167 -1.0742,-0.52089 -2.09405,-0.88364 -3.32191,-1.18158 -0.14093,-0.0342 -0.29843,-0.0737 -0.34999,-0.0878 -0.23431,-0.0641 -0.97586,-0.18487 -1.4937,-0.24319 -0.65434,-0.0737 -1.48539,-0.11247 -2.11867,-0.0989 z m 0.71248,8.79732 c 0.43446,0.0869 0.81036,0.27791 1.11595,0.56718 0.43962,0.41614 7.46792,7.15741 7.56535,7.25639 0.20193,0.20513 0.33095,0.38729 0.44402,0.62686 0.20242,0.42889 0.26003,0.93094 0.1599,1.39341 -0.0408,0.1883 -0.0918,0.3311 -0.18558,0.51902 -0.30549,0.61235 -0.85561,1.03394 -1.53669,1.17765 -0.14052,0.0297 -0.18448,0.0332 -0.41946,0.0336 -0.19941,2.8e-4 -0.29024,-0.005 -0.37793,-0.0214 -0.35668,-0.0676 -0.66673,-0.2023 -0.94457,-0.41034 -0.0894,-0.067 -1.0357,-0.96656 -3.17099,-3.01457 l -3.04353,-2.91914 -0.1501,0.1473 c -0.0826,0.081 -1.38755,1.33309 -2.9,2.78238 -1.51244,1.4493 -2.81458,2.69749 -2.89364,2.77375 -0.15402,0.14858 -0.29339,0.26009 -0.42817,0.34258 -0.87545,0.53584 -1.98747,0.40353 -2.70929,-0.32236 -0.34094,-0.34286 -0.54882,-0.7591 -0.61962,-1.24066 -0.0285,-0.19409 -0.0189,-0.56206 0.0194,-0.74127 0.0857,-0.40115 0.26274,-0.7486 0.53312,-1.04637 0.0473,-0.0521 1.66651,-1.6095 3.59832,-3.46098 1.9318,-1.85148 3.64752,-3.49613 3.8127,-3.65478 0.3967,-0.38101 0.52242,-0.47591 0.81213,-0.61305 0.20152,-0.0954 0.39248,-0.15388 0.61102,-0.18713 0.15627,-0.0238 0.56349,-0.0169 0.70768,0.0119 z"
       style="fill:#ef3e56;fill-opacity:1" /></g></svg>
