<?xml version="1.0" encoding="UTF-8" standalone="no"?>
<!-- Created with Inkscape (http://www.inkscape.org/) -->

<svg
   xmlns:dc="http://purl.org/dc/elements/1.1/"
   xmlns:cc="http://creativecommons.org/ns#"
   xmlns:rdf="http://www.w3.org/1999/02/22-rdf-syntax-ns#"
   xmlns:svg="http://www.w3.org/2000/svg"
   xmlns="http://www.w3.org/2000/svg"
   xmlns:sodipodi="http://sodipodi.sourceforge.net/DTD/sodipodi-0.dtd"
   xmlns:inkscape="http://www.inkscape.org/namespaces/inkscape"
   id="svg2"
   version="1.1"
   inkscape:version="0.48.4 r9939"
   width="40"
   height="40.000168"
   xml:space="preserve"
   sodipodi:docname="gplus.svg"><metadata
     id="metadata8"><rdf:RDF><cc:Work
         rdf:about=""><dc:format>image/svg+xml</dc:format><dc:type
           rdf:resource="http://purl.org/dc/dcmitype/StillImage" /><dc:title></dc:title></cc:Work></rdf:RDF></metadata><defs
     id="defs6"><clipPath
       clipPathUnits="userSpaceOnUse"
       id="clipPath40"><path
         d="M 0,500 1024,500 1024,0 0,0 0,500 z"
         id="path42"
         inkscape:connector-curvature="0" /></clipPath><clipPath
       clipPathUnits="userSpaceOnUse"
       id="clipPath52"><path
         d="M 0,500 1024,500 1024,0 0,0 0,500 z"
         id="path54"
         inkscape:connector-curvature="0" /></clipPath></defs><sodipodi:namedview
     pagecolor="#ffffff"
     bordercolor="#666666"
     borderopacity="1"
     objecttolerance="10"
     gridtolerance="10"
     guidetolerance="10"
     inkscape:pageopacity="0"
     inkscape:pageshadow="2"
     inkscape:window-width="1920"
     inkscape:window-height="1023"
     id="namedview4"
     showgrid="false"
     fit-margin-top="0"
     fit-margin-left="0"
     fit-margin-right="0"
     fit-margin-bottom="0"
     inkscape:zoom="2.1314481"
     inkscape:cx="266.04193"
     inkscape:cy="15.887433"
     inkscape:window-x="0"
     inkscape:window-y="28"
     inkscape:window-maximized="1"
     inkscape:current-layer="g10" /><g
     id="g10"
     inkscape:groupmode="layer"
     inkscape:label="FB-fLogo-online-broadcast"
     transform="matrix(1.25,0,0,-1.25,719.07623,184.81444)"><g
       id="g3144"
       transform="matrix(0.36183746,0,0,0.36185179,-278.17657,88.081544)"><path
         inkscape:connector-curvature="0"
         id="path3113"
         d="m -766.83872,165.17796 -19.9688,0 c -18.9086,0 -34.2363,-15.32889 -34.2363,-34.23319 l 0,-19.9684 c 0,-18.908205 15.3281,-34.232406 34.2363,-34.232406 l 34.2293,0 c 18.9082,0 19.9719,1.06445 19.9719,19.968801 l 0,34.232005 c 0,18.9051 -15.3281,34.23319 -34.2324,34.23319"
         style="fill:#0f80cc;fill-opacity:1;fill-rule:nonzero;stroke:none" /><path
         inkscape:connector-curvature="0"
         id="path3142"
         d="m -756.99342,112.22247 c -1.118,-5.2168 -3.1859,-10.0664 -6.1488,-14.410105 -0.8836,-1.2969 -2.3172,-1.9942 -3.7754,-1.9942 -0.8856,0 -1.7805,0.2578 -2.568,0.7949 -2.0824,1.418 -2.6195,4.261805 -1.1992,6.341805 2.293,3.3633 3.8953,7.1231 4.764,11.1797 0.9555,4.4649 0.9555,9.1879 -3e-4,13.6547 -0.8684,4.052 -2.4707,7.8125 -4.7641,11.1777 -1.4195,2.0833 -0.882,4.9231 1.2016,6.343 2.0847,1.4199 4.9238,0.8797 6.3425,-1.2023 2.9621,-4.3457 5.0297,-9.1934 6.1469,-14.4063 1.2238,-5.7187 1.2238,-11.7621 8e-4,-17.4789 z"
         style="fill:#ffffff;fill-opacity:1;fill-rule:nonzero;stroke:none" /><path
         inkscape:connector-curvature="0"
         id="path3140"
         d="m -781.72112,130.24827 c -1.1176,-1.116 -2.6497,-1.7539 -4.2258,-1.7539 -1.5719,0 -3.1086,0.6379 -4.2219,1.7539 -1.1168,1.1164 -1.7551,2.6484 -1.7551,4.2227 0,1.5742 0.6383,3.1093 1.7551,4.2238 2.2301,2.2312 6.234,2.2312 8.4477,0 1.1125,-1.1145 1.7503,-2.6496 1.7503,-4.2238 0,-1.5743 -0.6378,-3.1063 -1.7503,-4.2227 z"
         style="fill:#ffffff;fill-opacity:1;fill-rule:nonzero;stroke:none" /><path
         inkscape:connector-curvature="0"
         id="path3138"
         d="m -781.58952,111.39827 -6.1887,-12.724605 c -0.7988,-1.6465 -2.4504,-2.6035 -4.166,-2.6035 -0.6797,0 -1.3711,0.1523 -2.0266,0.4707 -2.3015,1.1211 -3.2546,3.896505 -2.1328,6.197205 l 6.1848,12.7266 c 1.1223,2.2969 3.8953,3.25 6.1973,2.1309 2.2976,-1.1211 3.2539,-3.8965 2.132,-6.1973 z"
         style="fill:#ffffff;fill-opacity:1;fill-rule:nonzero;stroke:none" /></g></g></svg>
