<?xml version="1.0" encoding="UTF-8" standalone="no"?>
<!-- Created with Inkscape (http://www.inkscape.org/) -->

<svg
   xmlns:dc="http://purl.org/dc/elements/1.1/"
   xmlns:cc="http://creativecommons.org/ns#"
   xmlns:rdf="http://www.w3.org/1999/02/22-rdf-syntax-ns#"
   xmlns:svg="http://www.w3.org/2000/svg"
   xmlns="http://www.w3.org/2000/svg"
   xmlns:sodipodi="http://sodipodi.sourceforge.net/DTD/sodipodi-0.dtd"
   xmlns:inkscape="http://www.inkscape.org/namespaces/inkscape"
   id="svg2"
   version="1.1"
   inkscape:version="0.48.4 r9939"
   width="40"
   height="40.000168"
   xml:space="preserve"
   sodipodi:docname="tuenti.svg"><metadata
     id="metadata8"><rdf:RDF><cc:Work
         rdf:about=""><dc:format>image/svg+xml</dc:format><dc:type
           rdf:resource="http://purl.org/dc/dcmitype/StillImage" /><dc:title></dc:title></cc:Work></rdf:RDF></metadata><defs
     id="defs6"><clipPath
       clipPathUnits="userSpaceOnUse"
       id="clipPath40"><path
         d="M 0,500 1024,500 1024,0 0,0 0,500 z"
         id="path42"
         inkscape:connector-curvature="0" /></clipPath><clipPath
       clipPathUnits="userSpaceOnUse"
       id="clipPath52"><path
         d="M 0,500 1024,500 1024,0 0,0 0,500 z"
         id="path54"
         inkscape:connector-curvature="0" /></clipPath></defs><sodipodi:namedview
     pagecolor="#ffffff"
     bordercolor="#666666"
     borderopacity="1"
     objecttolerance="10"
     gridtolerance="10"
     guidetolerance="10"
     inkscape:pageopacity="0"
     inkscape:pageshadow="2"
     inkscape:window-width="1920"
     inkscape:window-height="1023"
     id="namedview4"
     showgrid="false"
     fit-margin-top="0"
     fit-margin-left="0"
     fit-margin-right="0"
     fit-margin-bottom="0"
     inkscape:zoom="2.1314481"
     inkscape:cx="266.04193"
     inkscape:cy="15.887433"
     inkscape:window-x="0"
     inkscape:window-y="28"
     inkscape:window-maximized="1"
     inkscape:current-layer="g10" /><g
     id="g10"
     inkscape:groupmode="layer"
     inkscape:label="FB-fLogo-online-broadcast"
     transform="matrix(1.25,0,0,-1.25,719.07623,184.81444)"><g
       transform="translate(-575.26098,115.85148)"
       inkscape:label="ink_ext_XXXXXX"
       id="g3177"><g
         transform="scale(0.1,0.1)"
         id="g3179"><path
           id="path3181"
           style="fill:#32405a;fill-opacity:1;fill-rule:nonzero;stroke:none"
           d="M 0,0 320,0 320,320 0,320 0,0 z"
           inkscape:connector-curvature="0" /><path
           id="path3183"
           style="fill:#ffffff;fill-opacity:1;fill-rule:nonzero;stroke:none"
           d="m 210.398,106.563 c -3.71,-1.766 -10.808,-3.309 -16.101,-3.45 -15.977,-0.425 -19.07,11.223 -19.207,19.68 l 0,62.129 40.074,0 0,30.215 -39.93,0 0,50.843 c 0,0 -28.757,0 -29.238,0 -0.476,0 -1.316,-0.425 -1.433,-1.492 -1.711,-15.562 -8.997,-42.871 -39.27,-53.785 l 0,-25.781 20.195,0 0,-65.215 c 0,-22.3242 16.477,-54.0429 59.95,-53.3007 14.667,0.2539 30.957,6.3984 34.562,11.6914 l -9.602,28.4653"
           inkscape:connector-curvature="0" /></g></g></g></svg>
