<?xml version="1.0" encoding="UTF-8" standalone="no"?>
<!-- Created with Inkscape (http://www.inkscape.org/) -->

<svg
   xmlns:dc="http://purl.org/dc/elements/1.1/"
   xmlns:cc="http://creativecommons.org/ns#"
   xmlns:rdf="http://www.w3.org/1999/02/22-rdf-syntax-ns#"
   xmlns:svg="http://www.w3.org/2000/svg"
   xmlns="http://www.w3.org/2000/svg"
   xmlns:sodipodi="http://sodipodi.sourceforge.net/DTD/sodipodi-0.dtd"
   xmlns:inkscape="http://www.inkscape.org/namespaces/inkscape"
   id="svg2"
   version="1.1"
   inkscape:version="0.48.4 r9939"
   width="40"
   height="40.000168"
   xml:space="preserve"
   sodipodi:docname="facebook.svg"><metadata
     id="metadata8"><rdf:RDF><cc:Work
         rdf:about=""><dc:format>image/svg+xml</dc:format><dc:type
           rdf:resource="http://purl.org/dc/dcmitype/StillImage" /><dc:title></dc:title></cc:Work></rdf:RDF></metadata><defs
     id="defs6"><clipPath
       clipPathUnits="userSpaceOnUse"
       id="clipPath40"><path
         d="M 0,500 1024,500 1024,0 0,0 0,500 z"
         id="path42"
         inkscape:connector-curvature="0" /></clipPath><clipPath
       clipPathUnits="userSpaceOnUse"
       id="clipPath52"><path
         d="M 0,500 1024,500 1024,0 0,0 0,500 z"
         id="path54"
         inkscape:connector-curvature="0" /></clipPath></defs><sodipodi:namedview
     pagecolor="#ffffff"
     bordercolor="#666666"
     borderopacity="1"
     objecttolerance="10"
     gridtolerance="10"
     guidetolerance="10"
     inkscape:pageopacity="0"
     inkscape:pageshadow="2"
     inkscape:window-width="1183"
     inkscape:window-height="778"
     id="namedview4"
     showgrid="false"
     fit-margin-top="0"
     fit-margin-left="0"
     fit-margin-right="0"
     fit-margin-bottom="0"
     inkscape:zoom="1.353125"
     inkscape:cx="-43.156938"
     inkscape:cy="-8.0659164"
     inkscape:window-x="52"
     inkscape:window-y="219"
     inkscape:window-maximized="0"
     inkscape:current-layer="g10" /><g
     id="g10"
     inkscape:groupmode="layer"
     inkscape:label="FB-fLogo-online-broadcast"
     transform="matrix(1.25,0,0,-1.25,719.07623,184.81444)"><g
       transform="matrix(0.10666667,0,0,0.10666667,-575.26098,115.85148)"
       inkscape:label="ink_ext_XXXXXX"
       id="g3018"><g
         transform="scale(0.1,0.1)"
         id="g3020"><path
           id="path3022"
           style="fill:#52ade5;fill-opacity:1;fill-rule:nonzero;stroke:none"
           d="m 0,0 3000,0 0,3000 L 0,3000 0,0 z"
           inkscape:connector-curvature="0" /><path
           id="path3024"
           style="fill:#ffffff;fill-opacity:1;fill-rule:nonzero;stroke:none"
           d="m 2500,2120.27 c -73.58,-32.64 -152.67,-54.7 -235.66,-64.62 84.7,50.79 149.77,131.2 180.41,227.02 -79.29,-47.03 -167.1,-81.17 -260.57,-99.57 -74.84,79.74 -181.48,129.57 -299.5,129.57 -226.6,0 -410.33,-183.71 -410.33,-410.32 0,-32.15 3.63,-63.47 10.63,-93.51 -341.02,17.12 -643.371,180.47 -845.742,428.72 -35.32,-60.6 -55.554,-131.08 -55.554,-206.28 0,-142.36 72.433,-267.95 182.539,-341.53 -67.262,2.13 -130.535,20.59 -185.852,51.32 -0.039,-1.71 -0.039,-3.43 -0.039,-5.16 0,-198.81 141.441,-364.64 329.145,-402.35 -34.426,-9.37 -70.676,-14.39 -108.098,-14.39 -26.441,0 -52.145,2.58 -77.203,7.36 52.215,-163 203.75,-281.65 383.304,-284.95 C 967.051,931.52 790.129,865.93 597.883,865.93 c -33.121,0 -65.781,1.941 -97.883,5.742 181.586,-116.434 397.27,-184.371 628.99,-184.371 754.73,0 1167.46,625.249 1167.46,1167.479 0,17.78 -0.41,35.48 -1.2,53.08 80.18,57.85 149.74,130.12 204.75,212.41"
           inkscape:connector-curvature="0" /></g></g></g></svg>
